<svg width="36" height="37" viewBox="0 0 36 37" fill="none" xmlns="http://www.w3.org/2000/svg">
<path fill-rule="evenodd" clip-rule="evenodd" d="M0 31.3619C0 33.9256 2.07732 36.0029 4.641 36.0029H31.359C33.9227 36.0029 36 33.9256 36 31.3619V4.641C36 2.07732 33.9227 0 31.359 0H4.641C2.07732 0 0 2.07732 0 4.641V31.3619Z" fill="#563D7C"/>
<path fill-rule="evenodd" clip-rule="evenodd" d="M14.9309 15.9241V10.8261H19.4195C19.8473 10.8261 20.2604 10.8612 20.656 10.9316C21.0515 11.0019 21.4031 11.1308 21.7108 11.3124C22.0155 11.497 22.2616 11.749 22.4432 12.0772C22.6278 12.4024 22.7186 12.8214 22.7186 13.3282C22.7186 14.2453 22.4432 14.9045 21.8953 15.3118C21.3445 15.7191 20.6443 15.9212 19.7887 15.9212H14.9309V15.9241ZM10.1375 7.10214V28.9008H20.6999C21.6756 28.9008 22.6278 28.7777 23.5537 28.5346C24.4795 28.2914 25.3028 27.9134 26.0265 27.4036C26.7502 26.8938 27.3245 26.2375 27.7523 25.4347C28.18 24.6319 28.3939 23.6797 28.3939 22.5809C28.3939 21.2185 28.0628 20.0524 27.4007 19.0855C26.7385 18.1187 25.7365 17.4419 24.3946 17.0551C25.3702 16.5863 26.1086 15.9857 26.6096 15.2532C27.1077 14.5207 27.3567 13.6036 27.3567 12.5049C27.3567 11.4882 27.1897 10.6327 26.8528 9.94124C26.5158 9.24978 26.0441 8.69602 25.4318 8.27704C24.8223 7.86099 24.0899 7.55921 23.2343 7.37756C22.3788 7.19297 21.4324 7.10214 20.3952 7.10214H10.1375ZM14.9309 25.1769V19.191H20.152C21.1892 19.191 22.0243 19.4313 22.6571 19.9088C23.2871 20.3864 23.6035 21.1863 23.6035 22.3055C23.6035 22.8769 23.5068 23.3427 23.3134 23.709C23.12 24.0752 22.8593 24.3653 22.5341 24.5792C22.2088 24.793 21.8309 24.9454 21.4031 25.0362C20.9753 25.127 20.5271 25.1739 20.0583 25.1739H14.9309V25.1769Z" fill="white"/>
</svg>
