<svg width="37" height="41" viewBox="0 0 37 41" fill="none" xmlns="http://www.w3.org/2000/svg">
<path fill-rule="evenodd" clip-rule="evenodd" d="M35.545 30.3835C35.8286 29.8956 36.0033 29.3417 36.0033 28.8471V11.6631C36.0033 11.1686 35.8286 10.618 35.545 10.1267L18.0016 20.2551L35.545 30.3835Z" fill="#00599C"/>
<path fill-rule="evenodd" clip-rule="evenodd" d="M19.5611 40.1394L34.4438 31.5474C34.8724 31.3001 35.2615 30.8715 35.545 30.3836L18.0016 20.2552L0.458282 30.3836C0.741825 30.8715 1.13087 31.3001 1.55948 31.5474L16.4422 40.1394C17.2994 40.6372 18.7039 40.6372 19.5611 40.1394Z" fill="#004482"/>
<path fill-rule="evenodd" clip-rule="evenodd" d="M35.545 10.1268C35.2615 9.63879 34.8724 9.21019 34.4438 8.96291L19.5611 0.370913C18.7039 -0.123638 17.2994 -0.123638 16.4422 0.370913L1.55948 8.96291C0.702262 9.45746 0 10.6708 0 11.6632V28.8471C0 29.3417 0.174741 29.8923 0.458284 30.3836L18.0016 20.2552L35.545 10.1268Z" fill="#659AD2"/>
<path fill-rule="evenodd" clip-rule="evenodd" d="M18.0016 32.2563C11.3846 32.2563 6.00055 26.8722 6.00055 20.2552C6.00055 13.6381 11.3846 8.25406 18.0016 8.25406C22.2713 8.25406 26.2541 10.5521 28.3938 14.2513L23.201 17.2582C22.1295 15.4053 20.1381 14.2579 18.0016 14.2579C14.6915 14.2579 12.0011 16.9483 12.0011 20.2585C12.0011 23.5653 14.6915 26.259 18.0016 26.259C20.1381 26.259 22.1295 25.1083 23.201 23.2587L28.3938 26.2656C26.2541 29.9582 22.2713 32.2563 18.0016 32.2563Z" fill="white"/>
<path fill-rule="evenodd" clip-rule="evenodd" d="M30.0027 19.5892H28.6675V18.2539H27.3355V19.5892H26.0002V20.9212H27.3355V22.2564H28.6675V20.9212H30.0027V19.5892Z" fill="white"/>
<path fill-rule="evenodd" clip-rule="evenodd" d="M35.001 19.5892H33.669V18.2539H32.3337V19.5892H31.0017V20.9212H32.3337V22.2564H33.669V20.9212H35.001V19.5892Z" fill="white"/>
</svg>
