<svg width="36" height="41" viewBox="0 0 36 41" fill="none" xmlns="http://www.w3.org/2000/svg">
<path fill-rule="evenodd" clip-rule="evenodd" d="M35.5418 30.3808C35.8253 29.8929 36 29.339 36 28.8445V11.6621C36 11.1676 35.8253 10.617 35.5418 10.1258L18 20.2533L35.5418 30.3808Z" fill="#3949AB"/>
<path fill-rule="evenodd" clip-rule="evenodd" d="M19.5594 40.1357L34.4407 31.5445C34.8692 31.2973 35.2583 30.8687 35.5418 30.3808L18 20.2533L0.458252 30.3808C0.741768 30.8687 1.13078 31.2973 1.55935 31.5445L16.4407 40.1357C17.2978 40.6302 18.6989 40.6302 19.5594 40.1357Z" fill="#283593"/>
<path fill-rule="evenodd" clip-rule="evenodd" d="M35.5418 10.1258C35.2582 9.63791 34.8692 9.20934 34.4407 8.96209L19.5593 0.370879C18.7022 -0.123626 17.2978 -0.123626 16.4407 0.370879L1.55934 8.96209C0.702198 9.45659 0 10.6731 0 11.6621V28.8445C0 29.339 0.174725 29.8896 0.458242 30.3808L18 20.2533L35.5418 10.1258Z" fill="#5C6BC0"/>
<path fill-rule="evenodd" clip-rule="evenodd" d="M18 32.2533C11.3835 32.2533 6 26.8698 6 20.2533C6 13.6368 11.3835 8.2533 18 8.2533C22.2692 8.2533 26.2516 10.5511 28.3912 14.25L23.1989 17.2566C22.1275 15.4038 20.1363 14.2566 18 14.2566C14.6901 14.2566 12 16.9467 12 20.2566C12 23.5632 14.6901 26.2566 18 26.2566C20.1363 26.2566 22.1275 25.106 23.1989 23.2566L28.3912 26.2632C26.2516 29.9555 22.2692 32.2533 18 32.2533Z" fill="white"/>
</svg>
