<svg width="27" height="36" viewBox="0 0 27 36" fill="none" xmlns="http://www.w3.org/2000/svg">
<path d="M0.0137329 29.0455L4.44404 0.692145C4.49897 0.343324 4.76814 0.0714083 5.11421 0.0109825C5.46029 -0.0494432 5.80636 0.120848 5.97391 0.431216L10.5553 8.97871L12.3818 5.50148C12.5219 5.23232 12.802 5.06477 13.1069 5.06477C13.4118 5.06477 13.6892 5.23232 13.832 5.50148L26.1973 29.0455H0.0137329Z" fill="#FFA000"/>
<path d="M15.3207 18.0014L10.5553 8.97597L0.0137329 29.0455L15.3207 18.0014Z" fill="#F57C00"/>
<path d="M26.2 29.0456L22.8052 8.04486C22.753 7.74273 22.5388 7.49554 22.2477 7.40215C21.9565 7.30877 21.6379 7.38567 21.4209 7.60266L0.0137329 29.0456L11.8572 35.6869C12.6015 36.1016 13.5079 36.1016 14.2495 35.6869L26.2 29.0456Z" fill="#FFCA28"/>
<path d="M22.8052 8.04486C22.753 7.74273 22.5388 7.49553 22.2477 7.40215C21.9565 7.30876 21.6379 7.38567 21.4209 7.60265L17.1719 11.8627L13.832 5.50148C13.6919 5.23232 13.4118 5.06477 13.1069 5.06477C12.802 5.06477 12.5246 5.23232 12.3818 5.50148L10.5553 8.97871L5.97391 0.431216C5.80911 0.120848 5.46029 -0.0494432 5.11421 0.0109825C4.76814 0.0714083 4.49622 0.346071 4.44404 0.692145L0.0137331 29.0455H0L0.0137331 29.062L0.129091 29.1197L21.4127 7.8114C21.6297 7.59441 21.9483 7.51476 22.2422 7.60815C22.5361 7.70153 22.7503 7.94873 22.7997 8.2536L26.1643 29.0648L26.1973 29.0455L22.8052 8.04486ZM0.0521859 29.0071L4.44404 0.895395C4.49622 0.546574 4.76814 0.271912 5.11421 0.214233C5.46029 0.156554 5.80636 0.324098 5.97391 0.634466L10.5553 9.18196L12.3818 5.70473C12.5219 5.43557 12.802 5.26802 13.1069 5.26802C13.4118 5.26802 13.6892 5.43557 13.832 5.70473L17.106 11.9286L0.0521859 29.0071Z" fill="white" fill-opacity="0.2"/>
<path opacity="0.2" d="M14.2522 35.4864C13.5079 35.9011 12.6015 35.9011 11.8599 35.4864L0.0439457 28.8643L0.0164795 29.0455L11.8599 35.6869C12.6043 36.1016 13.5106 36.1016 14.2522 35.6869L26.2 29.0455L26.1698 28.856L14.2522 35.4864Z" fill="#A52714"/>
<path d="M22.7723 8.0476C22.7201 7.74547 22.5058 7.49828 22.2174 7.40489C21.9263 7.31151 21.6104 7.38841 21.3935 7.6054L17.1582 11.8654L13.8292 5.50698C13.6892 5.23781 13.409 5.07026 13.1069 5.07026C12.8048 5.07026 12.5273 5.23781 12.3845 5.50698L10.5635 8.9842L5.99863 0.439456C5.83383 0.129087 5.48775 -0.0412034 5.14168 0.0192223C4.7956 0.079648 4.52644 0.35431 4.47425 0.700385L0.0604248 29.04L11.8627 35.6786C12.6043 36.0934 13.5079 36.0934 14.2467 35.6786L26.1506 29.04L22.7723 8.0476Z" fill="url(#paint0_linear)"/>
<defs>
<linearGradient id="paint0_linear" x1="-0.851894" y1="6.13839" x2="31.7097" y2="23.3143" gradientUnits="userSpaceOnUse">
<stop stop-color="white" stop-opacity="0.1"/>
<stop offset="0.14" stop-color="white" stop-opacity="0.08"/>
<stop offset="0.61" stop-color="white" stop-opacity="0.02"/>
<stop offset="1" stop-color="white" stop-opacity="0"/>
</linearGradient>
</defs>
</svg>
