<svg width="36" height="36" viewBox="0 0 36 36" fill="none" xmlns="http://www.w3.org/2000/svg">
<path d="M35.3203 16.3945L19.6025 0.679687C18.6973 -0.225586 17.2295 -0.225586 16.3242 0.679687L13.0605 3.94336L17.2002 8.08301C18.1641 7.75781 19.2656 7.97461 20.0332 8.74219C20.8037 9.51269 21.0205 10.626 20.6865 11.5928L24.6768 15.583C25.6436 15.249 26.7568 15.4658 27.5273 16.2363C28.6055 17.3145 28.6055 19.0605 27.5273 20.1357C26.4492 21.2139 24.7031 21.2139 23.625 20.1357C22.8135 19.3242 22.6143 18.1348 23.0244 17.1357L19.3037 13.415V23.209C19.5674 23.3379 19.8135 23.5137 20.0332 23.7305C21.1113 24.8086 21.1113 26.5547 20.0332 27.6328C18.9551 28.7109 17.209 28.7109 16.1338 27.6328C15.0557 26.5547 15.0557 24.8086 16.1338 23.7305C16.4004 23.4639 16.708 23.2646 17.0361 23.1299V13.2451C16.708 13.1104 16.4004 12.9111 16.1338 12.6445C15.3164 11.8301 15.1201 10.6318 15.5391 9.62988L11.4551 5.5459L0.679687 16.3242C-0.225586 17.2295 -0.225586 18.6973 0.679687 19.6025L16.3975 35.3203C17.3027 36.2256 18.7705 36.2256 19.6758 35.3203L35.3203 19.6787C36.2256 18.7705 36.2256 17.3027 35.3203 16.3945Z" fill="#F05133"/>
</svg>
