<svg width="32" height="36" viewBox="0 0 32 36" fill="none" xmlns="http://www.w3.org/2000/svg">
<path fill-rule="evenodd" clip-rule="evenodd" d="M31.7432 0L28.8516 32.3965L15.8525 36L2.88867 32.4023L0 0H31.7432Z" fill="#E44D26"/>
<path fill-rule="evenodd" clip-rule="evenodd" d="M15.8701 33.2461L26.376 30.334L28.8457 2.64844H15.8701V33.2461Z" fill="#F16529"/>
<path fill-rule="evenodd" clip-rule="evenodd" d="M10.251 10.5967H15.873V6.62404H5.90625L6 7.69044L6.97559 18.6416H15.8672V14.666H10.6143L10.251 10.5967ZM11.1445 20.6279H7.15723L7.71387 26.8682L15.8555 29.127L15.873 29.1211V24.9873L15.8555 24.9932L11.4287 23.7979L11.1445 20.6279Z" fill="#EBEBEB"/>
<path fill-rule="evenodd" clip-rule="evenodd" d="M15.8584 18.6416H20.751L20.291 23.7949L15.8584 24.9902V29.124L24.0059 26.8652L24.0645 26.1943L24.999 15.7324L25.0957 14.666H15.8584V18.6416ZM15.8584 10.5879V10.5967H25.4561L25.5352 9.70312L25.7168 7.6875L25.8105 6.62109H15.8584V10.5879Z" fill="white"/>
</svg>
