<svg width="36" height="36" viewBox="0 0 36 36" fill="none" xmlns="http://www.w3.org/2000/svg">
<path d="M9.1125 28.0689L0.393749 21.2063L4.725 13.1625L17.1562 18L9.1125 28.0689Z" fill="url(#paint0_linear)"/>
<path d="M36 9.61875L35.325 30.4312L21.4875 36L13.1625 30.6L25.3125 18L20.025 6.3L24.8062 0.5625L36 9.61875Z" fill="url(#paint1_linear)"/>
<path d="M36 9.61875L25.0313 22.5562L20.025 6.3L24.8063 0.5625L36 9.61875Z" fill="url(#paint2_linear)"/>
<path d="M17.325 29.8687L2.925 35.1L5.23125 27L8.2125 16.9875L0 14.2312L5.23125 0L16.4812 1.35L27.6187 14.0625L17.325 29.8687Z" fill="url(#paint3_linear)"/>
<path d="M6.75 6.75H29.25V29.25H6.75V6.75Z" fill="black"/>
<path d="M8.8875 25.0312H17.325V26.4375H8.8875V25.0312ZM14.9063 11.3625V9.675H10.2938V11.3625H11.5875V17.2688H10.2938V19.0125H14.9063V17.2688H13.6125V11.3625H14.9063ZM19.4063 19.125C18.7641 19.154 18.1252 19.0184 17.55 18.7312C17.0795 18.4717 16.6602 18.1286 16.3125 17.7188L17.6063 16.2562C17.8399 16.5129 18.1044 16.7396 18.3938 16.9313C18.6661 17.0909 18.9784 17.169 19.2938 17.1562C19.4646 17.1693 19.636 17.1402 19.7929 17.0716C19.9498 17.0029 20.0875 16.8968 20.1938 16.7625C20.4543 16.427 20.5752 16.0038 20.5313 15.5813V9.5625H22.6126V15.6375C22.6339 16.135 22.5575 16.6319 22.3876 17.1C22.2391 17.5749 21.9674 18.0019 21.6001 18.3375C20.9626 18.8108 20.1993 19.0848 19.4063 19.125Z" fill="white"/>
<defs>
<linearGradient id="paint0_linear" x1="0.393749" y1="20.6157" x2="17.1226" y2="20.6157" gradientUnits="userSpaceOnUse">
<stop offset="0.26" stop-color="#F97A12"/>
<stop offset="0.46" stop-color="#B07B58"/>
<stop offset="0.72" stop-color="#577BAE"/>
<stop offset="0.91" stop-color="#1E7CE5"/>
<stop offset="1" stop-color="#087CFA"/>
</linearGradient>
<linearGradient id="paint1_linear" x1="13.2413" y1="12.8026" x2="42.7853" y2="19.5903" gradientUnits="userSpaceOnUse">
<stop stop-color="#F97A12"/>
<stop offset="0.07" stop-color="#CB7A3E"/>
<stop offset="0.15" stop-color="#9E7B6A"/>
<stop offset="0.24" stop-color="#757B91"/>
<stop offset="0.33" stop-color="#537BB1"/>
<stop offset="0.43" stop-color="#387CCC"/>
<stop offset="0.54" stop-color="#237CE0"/>
<stop offset="0.66" stop-color="#147CEF"/>
<stop offset="0.79" stop-color="#0B7CF7"/>
<stop offset="1" stop-color="#087CFA"/>
</linearGradient>
<linearGradient id="paint2_linear" x1="32.5125" y1="22.0612" x2="19.9302" y2="2.21487" gradientUnits="userSpaceOnUse">
<stop stop-color="#FE315D"/>
<stop offset="0.08" stop-color="#CB417E"/>
<stop offset="0.16" stop-color="#9E4E9B"/>
<stop offset="0.25" stop-color="#755BB4"/>
<stop offset="0.34" stop-color="#5365CA"/>
<stop offset="0.44" stop-color="#386DDB"/>
<stop offset="0.54" stop-color="#2374E9"/>
<stop offset="0.66" stop-color="#1478F3"/>
<stop offset="0.79" stop-color="#0B7BF8"/>
<stop offset="1" stop-color="#087CFA"/>
</linearGradient>
<linearGradient id="paint3_linear" x1="5.52375" y1="8.45454" x2="35.8198" y2="39.485" gradientUnits="userSpaceOnUse">
<stop stop-color="#FE315D"/>
<stop offset="0.04" stop-color="#F63462"/>
<stop offset="0.1" stop-color="#DF3A71"/>
<stop offset="0.17" stop-color="#C24383"/>
<stop offset="0.29" stop-color="#AD4A91"/>
<stop offset="0.55" stop-color="#755BB4"/>
<stop offset="0.92" stop-color="#1D76ED"/>
<stop offset="1" stop-color="#087CFA"/>
</linearGradient>
</defs>
</svg>
