<svg width="36" height="36" viewBox="0 0 36 36" fill="none" xmlns="http://www.w3.org/2000/svg">
<path fill-rule="evenodd" clip-rule="evenodd" d="M0 0H36V36H0V0Z" fill="#F7DF1E"/>
<path fill-rule="evenodd" clip-rule="evenodd" d="M9.46582 30.085L12.2197 28.418C12.75 29.3613 13.2334 30.1582 14.3936 30.1582C15.5039 30.1582 16.207 29.7246 16.207 28.0313V16.5264H19.5908V28.0781C19.5908 31.582 17.5371 33.1758 14.54 33.1758C11.833 33.1758 10.2627 31.7754 9.46582 30.085ZM21.4277 29.7217L24.1816 28.1279C24.9082 29.3115 25.8486 30.1816 27.5156 30.1816C28.916 30.1816 29.8125 29.4814 29.8125 28.5146C29.8125 27.3545 28.8955 26.9443 27.3486 26.2676L26.502 25.9043C24.0615 24.8643 22.4414 23.5605 22.4414 20.8066C22.4414 18.2695 24.375 16.3359 27.3955 16.3359C29.5459 16.3359 31.0928 17.0859 32.2031 19.043L29.5693 20.7334C28.9893 19.6934 28.3623 19.2832 27.3955 19.2832C26.4053 19.2832 25.7754 19.9102 25.7754 20.7334C25.7754 21.7471 26.4023 22.1602 27.8525 22.7871L28.6992 23.1504C31.5762 24.3838 33.1934 25.6406 33.1934 28.4678C33.1934 31.5117 30.7998 33.1787 27.5859 33.1787C24.4482 33.1787 22.418 31.6787 21.4277 29.7217Z" fill="black"/>
</svg>
