<svg width="27" height="36" viewBox="0 0 27 36" fill="none" xmlns="http://www.w3.org/2000/svg">
<path fill-rule="evenodd" clip-rule="evenodd" d="M8.55562 27.8415C8.55562 27.8415 7.17864 28.6413 9.53416 28.9108C12.3877 29.236 13.8438 29.1891 16.9875 28.5944C16.9875 28.5944 17.8136 29.113 18.968 29.5612C11.9219 32.5847 3.01839 29.3884 8.55562 27.8415Z" fill="#5382A1"/>
<path fill-rule="evenodd" clip-rule="evenodd" d="M7.69426 23.9009C7.69426 23.9009 6.15028 25.0435 8.50873 25.2867C11.5557 25.6002 13.9639 25.6266 18.1271 24.8238C18.1271 24.8238 18.7043 25.4068 19.6096 25.7262C11.0869 28.2194 1.59451 25.9225 7.69426 23.9009Z" fill="#5382A1"/>
<path fill-rule="evenodd" clip-rule="evenodd" d="M14.9542 17.2152C16.6916 19.2133 14.4972 21.0122 14.4972 21.0122C14.4972 21.0122 18.9065 18.7358 16.882 15.8851C14.9894 13.2278 13.5391 11.9065 21.3909 7.35368C21.3909 7.35368 9.06834 10.4299 14.9542 17.2152Z" fill="#E76F00"/>
<path fill-rule="evenodd" clip-rule="evenodd" d="M24.2738 30.7566C24.2738 30.7566 25.2904 31.5945 23.1517 32.2449C19.0852 33.4783 6.22061 33.8504 2.64631 32.2947C1.36308 31.7351 3.77134 30.9616 4.52722 30.7976C5.31825 30.6247 5.76943 30.6569 5.76943 30.6569C4.33971 29.652 -3.46515 32.6316 1.80547 33.4871C16.1759 35.8162 28.0004 32.4382 24.2738 30.7566Z" fill="#5382A1"/>
<path fill-rule="evenodd" clip-rule="evenodd" d="M9.21775 19.8169C9.21775 19.8169 2.67561 21.3696 6.90031 21.9351C8.68453 22.1753 12.2413 22.1196 15.5548 21.8413C18.2619 21.6128 20.9807 21.1265 20.9807 21.1265C20.9807 21.1265 20.0256 21.5366 19.3342 22.0083C12.6895 23.7544 -0.145748 22.9429 3.54867 21.1558C6.67472 19.644 9.21775 19.8169 9.21775 19.8169Z" fill="#5382A1"/>
<path fill-rule="evenodd" clip-rule="evenodd" d="M20.9543 26.3766C27.7074 22.8667 24.5843 19.4946 22.4046 19.9487C21.8714 20.06 21.6311 20.1567 21.6311 20.1567C21.6311 20.1567 21.8303 19.8462 22.2083 19.7114C26.5209 18.1967 29.8374 24.1822 20.8167 26.5553C20.8196 26.5553 20.9221 26.4615 20.9543 26.3766Z" fill="#5382A1"/>
<path fill-rule="evenodd" clip-rule="evenodd" d="M16.882 0C16.882 0 20.6233 3.7413 13.3341 9.49533C7.4892 14.1097 12.001 16.7435 13.3311 19.7495C9.9209 16.6732 7.41596 13.9632 9.09471 11.4407C11.5616 7.73748 18.3908 5.94447 16.882 0Z" fill="#E76F00"/>
<path fill-rule="evenodd" clip-rule="evenodd" d="M9.87988 35.8866C16.3634 36.3026 26.3187 35.6551 26.556 32.5876C26.556 32.5876 26.1019 33.7508 21.1975 34.6736C15.6632 35.7137 8.83981 35.5936 4.79089 34.9256C4.79089 34.9285 5.62001 35.6141 9.87988 35.8866Z" fill="#5382A1"/>
</svg>
