<svg width="17" height="36" viewBox="0 0 17 36" fill="none" xmlns="http://www.w3.org/2000/svg">
<path d="M7.97231 0.0985413L8.93297 1.90295C9.14898 2.23586 9.38307 2.53071 9.65847 2.8053C10.4628 3.60963 11.2266 4.45203 11.913 5.35437C13.5405 7.49169 14.6386 9.86527 15.4224 12.4322C15.8928 14.0003 16.1479 15.609 16.1671 17.2355C16.2457 22.0984 14.5787 26.274 11.2177 29.7441C10.6688 30.293 10.0816 30.8014 9.45165 31.2536C9.11873 31.2536 8.96105 30.9982 8.82389 30.7633C8.56874 30.3324 8.41214 29.8407 8.33357 29.3515C8.21531 28.7629 8.13782 28.1748 8.17616 27.5673V27.293C8.14916 27.2344 7.85567 0.237051 7.97258 0.0988113V0.0990813L7.97231 0.0985413Z" fill="#599636"/>
<path d="M7.97226 0.0385719C7.93284 -0.0399983 7.89369 0.0194018 7.854 0.0577419C7.87317 0.451403 7.73574 0.802404 7.52109 1.13774C7.28484 1.47066 6.97218 1.72635 6.65817 2.00067C4.91477 3.51024 3.54236 5.33382 2.44318 7.37314C0.980857 10.118 0.227014 13.0594 0.0134437 16.1563C-0.0842966 17.2733 0.366875 21.215 0.718956 22.3522C1.67962 25.3714 3.4052 27.9013 5.64026 30.0969C6.18917 30.6256 6.77643 31.1159 7.38393 31.5873C7.56051 31.5873 7.57968 31.4299 7.61991 31.3127C7.69686 31.0622 7.75653 30.8062 7.79649 30.5476L8.19015 27.6073L7.97199 0.0385719H7.97226Z" fill="#6CAC48"/>
<path d="M8.93298 32.4479C8.9724 31.9978 9.1884 31.6244 9.42357 31.252C9.18732 31.1543 9.01182 30.9596 8.87466 30.7425C8.7564 30.5468 8.65866 30.3116 8.58225 30.0956C8.30766 29.2721 8.24934 28.4081 8.1705 27.5668V27.0573C8.07276 27.1359 8.05224 27.802 8.05224 27.9011C7.99743 28.788 7.87566 29.6777 7.69908 30.5484C7.64049 30.9016 7.60134 31.2537 7.38399 31.5674C7.38399 31.6068 7.38399 31.646 7.40316 31.7048C7.75632 32.7443 7.85325 33.8027 7.91265 34.8817V35.2753C7.91265 35.7454 7.89348 35.6463 8.2839 35.804C8.44131 35.8626 8.61681 35.8825 8.77422 35.9997C8.89248 35.9997 8.91165 35.902 8.91165 35.8231L8.85306 35.1762V33.3718C8.83389 33.0567 8.89248 32.7441 8.93163 32.4495L8.93298 32.4479Z" fill="#C2BFBF"/>
</svg>
