<svg width="36" height="36" viewBox="0 0 36 36" fill="none" xmlns="http://www.w3.org/2000/svg">
<path fill-rule="evenodd" clip-rule="evenodd" d="M33.16 27.4043C31.5438 27.301 29.9242 27.5449 28.41 28.1197C28.0452 28.2699 27.4586 28.2699 27.4085 28.7349C27.6017 28.928 27.6232 29.2499 27.802 29.5218C28.1334 30.0903 28.562 30.5963 29.0682 31.0169C29.5832 31.4103 30.0983 31.8037 30.642 32.1471C31.5934 32.7337 32.6736 33.0771 33.5964 33.6708C34.1401 34.0142 34.6766 34.4506 35.2203 34.8226C35.4849 35.0157 35.6566 35.3376 36 35.4592V35.3877C35.8283 35.1659 35.7782 34.844 35.6066 34.6008L34.8912 33.8854C34.1726 32.9341 33.314 32.0971 32.3445 31.4032C31.5576 30.8595 29.8408 30.1227 29.526 29.2571L29.4759 29.207C30.0496 29.1244 30.6146 28.9903 31.1642 28.8064C32.0011 28.5918 32.7594 28.6419 33.6107 28.4201C34.0042 28.32 34.3976 28.1983 34.791 28.0767V27.855C34.3475 27.4114 34.0328 26.8249 33.5678 26.4243C32.2982 25.318 30.9471 24.3089 29.526 23.4054C28.7677 22.919 27.7877 22.5971 26.9793 22.1822C26.686 22.032 26.1996 21.9604 26.0279 21.71C25.6246 21.1188 25.2864 20.4855 25.0192 19.8215C24.3039 18.4766 23.5885 16.9601 23.0162 15.5293C22.6594 14.5547 22.2462 13.6017 21.7787 12.6751C19.5021 8.80713 16.2156 5.63188 12.2716 3.48986C11.2805 3.00765 10.2253 2.67037 9.13829 2.48836C8.53024 2.48836 7.91503 2.40967 7.30697 2.38821C6.90952 2.13039 6.53173 1.84346 6.17671 1.52978C4.74599 0.642737 1.1692 -1.26727 0.153386 1.25795C-0.504744 2.86035 1.13343 4.42698 1.69856 5.23534C2.17083 5.80731 2.58761 6.4229 2.94328 7.07381C3.11497 7.49587 3.16505 7.93939 3.33673 8.37576C3.69588 9.49681 4.12107 10.5956 4.61007 11.6664C4.87509 12.1959 5.17875 12.7052 5.51857 13.1901C5.71172 13.462 6.0551 13.5836 6.12663 14.0271C5.85799 14.6117 5.67027 15.2302 5.56865 15.8656C4.6816 18.6412 5.02498 22.0749 6.28401 24.1136C6.6703 24.7289 7.60742 26.0809 8.85215 25.5444C9.9538 25.108 9.71058 23.7059 10.0325 22.4826C10.104 22.1822 10.0325 21.989 10.197 21.7673V21.8102C10.5404 22.5256 10.9124 23.1622 11.2057 23.849C12.074 25.1272 13.1471 26.2535 14.3819 27.1825C14.9685 27.6261 15.4334 28.3843 16.1703 28.6562V28.6133H16.1202C15.9543 28.4246 15.7643 28.2587 15.5551 28.1197C15.0903 27.6648 14.6644 27.1719 14.2817 26.646C13.2435 25.2359 12.327 23.7402 11.5419 22.175C11.1484 21.4096 10.8265 20.5726 10.4903 19.8143C10.3401 19.521 10.3401 19.099 10.0969 18.9345C9.63488 19.4336 9.23385 19.9859 8.90222 20.5798C8.49261 21.7757 8.25184 23.0229 8.18686 24.2853C8.08671 24.2853 8.13679 24.2853 8.08671 24.3354C7.30697 24.1351 7.03514 23.3268 6.74184 22.64C5.97887 20.5338 5.90125 18.2403 6.52008 16.0873C6.69176 15.5723 7.42858 13.9412 7.12813 13.462C6.98506 12.9898 6.49147 12.7466 6.22678 12.3532C5.88272 11.8611 5.58799 11.3364 5.34689 10.7865C4.7603 9.40588 4.45985 7.88932 3.83033 6.49437C3.47252 5.83227 3.061 5.20064 2.59992 4.60582C2.09059 4.01439 1.64017 3.37469 1.25504 2.69582C1.13343 2.42398 0.961742 1.98046 1.15489 1.68716C1.16978 1.60366 1.21125 1.52721 1.27313 1.4692C1.33501 1.41119 1.41398 1.37473 1.49826 1.36525C1.82017 1.09341 2.72152 1.43678 3.04343 1.58701C3.91422 1.91596 4.74463 2.34317 5.51857 2.86035C5.86195 3.10357 6.23394 3.57571 6.66315 3.69016H7.17821C7.9651 3.86185 8.84499 3.74024 9.58181 3.962C10.8244 4.37561 12.0094 4.9453 13.1085 5.6574C16.352 7.73113 18.9861 10.6294 20.7414 14.0557C21.0419 14.6137 21.1635 15.1359 21.4568 15.7225C21.9718 16.9243 22.6085 18.1547 23.1235 19.2993C23.5758 20.4588 24.159 21.5628 24.8619 22.5899C25.2339 23.105 26.7003 23.3768 27.3585 23.6487C27.936 23.8565 28.502 24.0953 29.0539 24.364C29.8837 24.8791 30.7135 25.4657 31.5004 26.0308C31.8867 26.3313 33.1171 26.9393 33.1886 27.4615L33.16 27.4043Z" fill="#00758F"/>
<path fill-rule="evenodd" clip-rule="evenodd" d="M8.18687 6.06516C7.84634 6.06171 7.50695 6.10504 7.17821 6.19393V6.244H7.22829C7.46656 6.59603 7.72952 6.93071 8.01518 7.2455C8.20833 7.63895 8.38001 8.0324 8.57316 8.42585L8.62323 8.37577C8.80494 8.23156 8.94738 8.04389 9.0374 7.83009C9.12742 7.61629 9.16212 7.38326 9.13829 7.15251C8.99522 6.98082 8.9666 6.80914 8.84499 6.63745C8.72338 6.46576 8.38001 6.27262 8.18687 6.07232V6.06516Z" fill="#00758F"/>
</svg>
