<svg width="36" height="40" viewBox="0 0 36 40" fill="none" xmlns="http://www.w3.org/2000/svg">
<path d="M16.295 0.421152C17.2738 -0.139118 18.5487 -0.141649 19.5267 0.421152C24.4468 3.20127 29.3684 5.97703 34.2877 8.75884C35.2129 9.28002 35.8318 10.3097 35.8224 11.3759V28.1021C35.8293 29.2124 35.1492 30.2667 34.1731 30.7761C29.2692 33.5409 24.3678 36.3091 19.4647 39.0739C18.4656 39.6451 17.1651 39.6011 16.1973 38.983C14.7271 38.1308 13.2544 37.2827 11.784 36.4312C11.4836 36.2521 11.1449 36.1096 10.9327 35.8183C11.1203 35.5655 11.4556 35.534 11.7281 35.4236C12.3418 35.2285 12.9054 34.9152 13.4692 34.6112C13.6118 34.5137 13.7858 34.5511 13.9225 34.6384C15.1797 35.3592 16.4257 36.101 17.6872 36.8149C17.9563 36.9703 18.2287 36.764 18.4587 36.6358C23.271 33.916 28.0892 31.2065 32.9006 28.4858C33.0789 28.4001 33.1774 28.2108 33.1629 28.0155C33.1663 22.4979 33.1638 16.9793 33.1646 11.4616C33.185 11.2401 33.0568 11.0363 32.8564 10.9456C27.9695 8.19351 23.0851 5.43715 18.1991 2.6843C18.1144 2.62611 18.0141 2.59488 17.9114 2.59473C17.8087 2.59458 17.7083 2.62551 17.6235 2.68346C12.7374 5.43715 7.85386 8.19604 2.96778 10.948C2.76814 11.0389 2.63415 11.2392 2.65791 11.4616C2.65876 16.9793 2.65791 22.4979 2.65791 28.0164C2.64944 28.1117 2.67037 28.2073 2.71788 28.2903C2.76539 28.3733 2.8372 28.4398 2.92364 28.4808C4.22751 29.2201 5.53307 29.9543 6.83778 30.6912C7.57281 31.0868 8.47528 31.3219 9.2851 31.0188C9.99975 30.7625 10.5007 30.0332 10.487 29.2744C10.4938 23.789 10.4837 18.3027 10.4921 12.8181C10.4743 12.5746 10.7052 12.3734 10.942 12.3963C11.5685 12.3921 12.1958 12.3879 12.8223 12.398C13.0838 12.3921 13.2638 12.6543 13.2314 12.8996C13.2289 18.4198 13.2382 23.9401 13.2272 29.4603C13.2289 30.9315 12.6245 32.5323 11.2637 33.2521C9.58724 34.1206 7.51516 33.9364 5.85896 33.1037C4.42518 32.388 3.05692 31.5435 1.64859 30.7768C0.669912 30.2702 -0.00676811 29.2117 0.00012101 28.1023V11.3759C-0.0101424 10.2877 0.633358 9.23925 1.58743 8.72566C6.49051 5.95861 11.3928 3.18946 16.295 0.421152Z" fill="#8CC84B"/>
<path d="M20.5725 12.0075C22.7109 11.8699 25.0002 11.926 26.9245 12.9795C28.4144 13.7867 29.2404 15.481 29.2667 17.1363C29.2251 17.3595 28.9917 17.4827 28.7786 17.4674C28.1581 17.4665 27.5375 17.4758 26.9171 17.4631C26.6539 17.4733 26.5009 17.2306 26.4679 16.9979C26.2896 16.2059 25.8577 15.4216 25.1123 15.0396C23.968 14.4667 22.6412 14.4955 21.3934 14.5074C20.4825 14.5558 19.503 14.6347 18.7312 15.1703C18.1388 15.5761 17.9588 16.3952 18.1703 17.0549C18.3696 17.5285 18.9164 17.6813 19.3638 17.8222C21.9409 18.4962 24.6718 18.4292 27.1997 19.3162C28.2463 19.6778 29.2701 20.3808 29.6283 21.4765C30.0969 22.9452 29.8915 24.7007 28.8466 25.8797C27.9992 26.8499 26.7651 27.378 25.5342 27.6648C23.8967 28.0299 22.1973 28.0392 20.5344 27.8771C18.9707 27.6988 17.3434 27.288 16.1363 26.2226C15.104 25.3263 14.5998 23.9298 14.6499 22.5819C14.6619 22.3543 14.8885 22.1955 15.1066 22.2142C15.7314 22.2092 16.3562 22.2075 16.981 22.2151C17.2305 22.1972 17.4155 22.4129 17.4283 22.6481C17.5436 23.4027 17.8272 24.1947 18.4852 24.642C19.755 25.4613 21.3484 25.4052 22.8024 25.4281C24.007 25.3747 25.3593 25.3585 26.3423 24.5623C26.861 24.1082 27.0147 23.3484 26.8745 22.6948C26.7226 22.143 26.1454 21.8858 25.6496 21.7177C23.1056 20.9129 20.3441 21.2049 17.8247 20.2949C16.8018 19.9334 15.8128 19.25 15.4198 18.1992C14.8715 16.7119 15.1227 14.8724 16.2771 13.7332C17.4027 12.6 19.0276 12.1636 20.5725 12.0074V12.0075Z" fill="#8CC84B"/>
</svg>
