<svg width="36" height="36" viewBox="0 0 36 36" fill="none" xmlns="http://www.w3.org/2000/svg">
<path d="M1.49985 1.49985H34.4998V33.5999H1.49985V1.49985Z" fill="#0C0824"/>
<path d="M1.49984 1.49984H34.4999V33.6H1.49984V1.49984ZM0 35.1001H36V0H0V35.1001ZM24.2699 14.3998C23.0849 14.3998 22.6799 14.9998 22.6799 15.495C22.6799 16.035 22.9499 16.41 24.5399 17.2351C26.8948 18.375 27.63 19.4701 27.63 21.075C27.63 23.475 25.8 24.7651 23.3249 24.7651C22.02 24.7651 20.8949 24.4951 20.2499 24.1201C20.1449 24.075 20.13 24.0002 20.13 23.88V21.675C20.13 21.5248 20.2051 21.48 20.3101 21.5551C21.2551 22.1701 22.3351 22.4401 23.3252 22.4401C24.5102 22.4401 25.0051 21.9452 25.0051 21.2702C25.0051 20.7302 24.6601 20.2502 23.1451 19.4701C21.0151 18.4501 20.13 17.4152 20.13 15.6902C20.13 13.7551 21.645 12.1502 24.2702 12.1502C25.5602 12.1502 26.4601 12.3451 26.955 12.5703C27.0749 12.6454 27.1052 12.7653 27.1052 12.8703V14.9253C27.1052 15.0451 27.0301 15.1202 26.8803 15.0751C26.2204 14.6553 25.2454 14.4001 24.2704 14.4001L24.2699 14.3998ZM11.3699 16.1848C11.715 16.2148 11.985 16.2148 12.5849 16.2148C14.3399 16.2148 15.9899 15.5997 15.9899 13.2148C15.9899 11.3097 14.8048 10.3499 12.8098 10.3499C12.2099 10.3499 11.6399 10.3798 11.3699 10.3949V16.1851V16.1848ZM8.6999 8.21984C8.6999 8.11481 8.90996 8.03975 9.02984 8.03975C9.98995 7.99466 11.4147 7.96469 12.8997 7.96469C17.0547 7.96469 18.6747 10.2448 18.6747 13.1546C18.6747 16.9646 15.9148 18.5997 12.5247 18.5997C11.9547 18.5997 11.7598 18.5697 11.3548 18.5697V24.3298C11.3548 24.4497 11.3097 24.5099 11.1747 24.5099H8.87972C8.75984 24.5099 8.69963 24.4648 8.69963 24.3298V8.21984H8.6999Z" fill="#31C5F0"/>
</svg>
