<svg width="36" height="36" viewBox="0 0 36 36" fill="none" xmlns="http://www.w3.org/2000/svg">
<path d="M17.8459 0.0101776C8.72972 0.0101776 9.29892 3.9635 9.29892 3.9635L9.30904 8.05925H18.0084V9.28891H5.85379C5.85379 9.28891 0.0203705 8.62733 0.0203705 17.8255C0.0203705 27.0239 5.11192 26.6977 5.11192 26.6977H8.15054V22.4293C8.15054 22.4293 7.98673 17.3377 13.1608 17.3377H21.789C21.789 17.3377 26.6366 17.416 26.6366 12.6526V4.77666C26.6366 4.77666 27.3729 0.0101776 17.8459 0.0101776ZM13.049 2.76449C13.2546 2.76431 13.4582 2.80466 13.6482 2.88325C13.8381 2.96183 14.0107 3.0771 14.1561 3.22246C14.3014 3.36783 14.4167 3.54042 14.4953 3.73038C14.5739 3.92034 14.6142 4.12394 14.614 4.32951C14.6142 4.53508 14.5739 4.73867 14.4953 4.92863C14.4167 5.11859 14.3014 5.29119 14.1561 5.43656C14.0107 5.58192 13.8381 5.69719 13.6482 5.77577C13.4582 5.85436 13.2546 5.89471 13.049 5.89453C12.8435 5.89471 12.6399 5.85436 12.4499 5.77577C12.26 5.69719 12.0874 5.58192 11.942 5.43656C11.7966 5.29119 11.6814 5.11859 11.6028 4.92863C11.5242 4.73867 11.4838 4.53508 11.484 4.32951C11.4838 4.12394 11.5242 3.92034 11.6028 3.73038C11.6814 3.54042 11.7966 3.36783 11.942 3.22246C12.0874 3.0771 12.26 2.96183 12.4499 2.88325C12.6399 2.80466 12.8435 2.76431 13.049 2.76449Z" fill="url(#paint0_linear)"/>
<path d="M18.1048 35.7332C27.221 35.7332 26.6518 31.7799 26.6518 31.7799L26.6416 27.6842H17.9421V26.4546H30.0967C30.0967 26.4546 35.9302 27.1162 35.9302 17.9178C35.9302 8.71948 30.8386 9.0457 30.8386 9.0457H27.8V13.314C27.8 13.314 27.9638 18.4055 22.7897 18.4055H14.1615C14.1615 18.4055 9.31391 18.3272 9.31391 23.0907V30.9668C9.31391 30.9668 8.57781 35.7332 18.1047 35.7332H18.1048ZM22.9016 32.9791C22.6961 32.9793 22.4925 32.939 22.3025 32.8604C22.1126 32.7818 21.94 32.6665 21.7946 32.5212C21.6492 32.3758 21.534 32.2032 21.4554 32.0132C21.3768 31.8233 21.3364 31.6197 21.3366 31.4141C21.3364 31.2085 21.3768 31.0049 21.4553 30.815C21.5339 30.625 21.6492 30.4524 21.7946 30.307C21.9399 30.1616 22.1125 30.0463 22.3025 29.9677C22.4925 29.8891 22.6961 29.8488 22.9016 29.849C23.1072 29.8488 23.3108 29.8891 23.5008 29.9677C23.6907 30.0463 23.8633 30.1616 24.0087 30.3069C24.154 30.4523 24.2693 30.6249 24.3479 30.8149C24.4265 31.0048 24.4668 31.2084 24.4667 31.414C24.4668 31.6196 24.4265 31.8231 24.3479 32.0131C24.2693 32.2031 24.154 32.3757 24.0087 32.521C23.8633 32.6664 23.6907 32.7817 23.5008 32.8602C23.3108 32.9388 23.1072 32.9792 22.9016 32.979V32.9791Z" fill="url(#paint1_linear)"/>
<defs>
<linearGradient id="paint0_linear" x1="3.47128" y1="3.22326" x2="21.2671" y2="20.8415" gradientUnits="userSpaceOnUse">
<stop stop-color="#387EB8"/>
<stop offset="1" stop-color="#366994"/>
</linearGradient>
<linearGradient id="paint1_linear" x1="14.3944" y1="14.5366" x2="33.505" y2="32.6024" gradientUnits="userSpaceOnUse">
<stop stop-color="#FFE052"/>
<stop offset="1" stop-color="#FFC331"/>
</linearGradient>
</defs>
</svg>
