<svg width="36" height="33" viewBox="0 0 36 33" fill="none" xmlns="http://www.w3.org/2000/svg">
<path fill-rule="evenodd" clip-rule="evenodd" d="M36 16.0342C36 13.6494 33.0146 11.3906 28.4355 9.9873C29.4932 5.32031 29.0215 1.6084 26.9531 0.418945C26.4756 0.140625 25.9189 0.00878906 25.3096 0.00878906V1.64648C25.6465 1.64648 25.9189 1.71387 26.1475 1.83691C27.1465 2.4082 27.5772 4.58789 27.2402 7.3916C27.1582 8.08008 27.0264 8.80664 26.8652 9.54785C25.4268 9.19629 23.8564 8.92383 22.207 8.74805C21.2168 7.3916 20.1885 6.1582 19.1543 5.08008C21.5449 2.85352 23.7891 1.6377 25.3154 1.6377V0C23.2969 0 20.6572 1.43848 17.9854 3.93457C15.3135 1.45312 12.6738 0.0292969 10.6553 0.0292969V1.66699C12.1729 1.66699 14.4258 2.87695 16.8193 5.08594C15.791 6.16406 14.7656 7.38867 13.79 8.74805C12.1318 8.92383 10.5615 9.19629 9.12305 9.55371C8.95312 8.82129 8.83008 8.10938 8.74219 7.42676C8.39648 4.62305 8.82422 2.44336 9.81445 1.86328C10.0342 1.73145 10.3213 1.67285 10.6582 1.67285V0.0380859C10.043 0.0380859 9.4834 0.169922 9 0.448242C6.9375 1.6377 6.47461 5.34375 7.54102 9.99609C2.9707 11.4023 0 13.6553 0 16.0342C0 18.4189 2.98535 20.6777 7.56445 22.0811C6.50684 26.748 6.97852 30.46 9.04688 31.6494C9.52441 31.9277 10.0811 32.0596 10.6992 32.0596C12.7178 32.0596 15.3574 30.6211 18.0293 28.125C20.7012 30.6064 23.3408 32.0303 25.3594 32.0303C25.9746 32.0303 26.5342 31.8984 27.0176 31.6201C29.0801 30.4307 29.543 26.7246 28.4766 22.0723C33.0293 20.6719 36 18.4102 36 16.0342ZM21.3457 16.0342C21.3457 14.1826 19.8457 12.6797 17.9912 12.6797C16.1396 12.6797 14.6367 14.1797 14.6367 16.0342C14.6367 17.8887 16.1367 19.3887 17.9912 19.3887C19.8457 19.3857 21.3457 17.8857 21.3457 16.0342ZM26.4463 11.1387C26.1738 12.085 25.8369 13.0605 25.4561 14.0361C25.1543 13.4502 24.8408 12.8613 24.4951 12.2754C24.1582 11.6895 23.7979 11.1152 23.4375 10.5586C24.4805 10.7139 25.4853 10.9043 26.4463 11.1387ZM23.0859 18.9551C22.5146 19.9453 21.9258 20.8857 21.3164 21.7588C20.2236 21.8555 19.1162 21.9053 18 21.9053C16.8926 21.9053 15.7852 21.8525 14.6982 21.7646C14.0889 20.8916 13.4941 19.96 12.9229 18.9756C12.3662 18.0146 11.8594 17.0391 11.3965 16.0547C11.8506 15.0703 12.3662 14.0889 12.9141 13.1279C13.4854 12.1377 14.0742 11.1973 14.6836 10.3242C15.7764 10.2275 16.8838 10.1777 18 10.1777C19.1074 10.1777 20.2148 10.2305 21.3018 10.3184C21.9111 11.1914 22.5059 12.123 23.0771 13.1074C23.6338 14.0684 24.1406 15.0439 24.6035 16.0283C24.1406 17.0098 23.6367 17.9912 23.0859 18.9551ZM25.4561 18C25.8516 18.9844 26.1885 19.9658 26.4697 20.9209C25.5088 21.1553 24.4951 21.3545 23.4463 21.5068C23.8066 20.9414 24.1641 20.3613 24.5039 19.7666C24.8379 19.1807 25.1543 18.5859 25.4561 18ZM18.0146 25.8281C17.332 25.125 16.6494 24.3398 15.9756 23.4814C16.6348 23.5107 17.3115 23.5342 17.9941 23.5342C18.6826 23.5342 19.3652 23.5195 20.0332 23.4814C19.3711 24.3398 18.6885 25.125 18.0146 25.8281ZM12.5566 21.5068C11.5137 21.3516 10.5088 21.1611 9.54785 20.9268C9.82031 19.9805 10.1572 19.0049 10.5381 18.0293C10.8398 18.6152 11.1533 19.2041 11.499 19.79C11.8447 20.3789 12.1963 20.9502 12.5566 21.5068ZM17.9766 6.23731C18.6592 6.94043 19.3418 7.72559 20.0156 8.58398C19.3564 8.55469 18.6797 8.53125 17.9971 8.53125C17.3086 8.53125 16.626 8.5459 15.958 8.58398C16.6201 7.72559 17.3027 6.94043 17.9766 6.23731ZM12.5479 10.5586C12.1875 11.124 11.8301 11.7041 11.4902 12.2988C11.1533 12.8848 10.8369 13.4736 10.5352 14.0596C10.1396 13.0752 9.80273 12.0938 9.52148 11.1387C10.4854 10.9102 11.499 10.7139 12.5479 10.5586ZM5.90625 19.7461C3.30762 18.6387 1.62891 17.1855 1.62891 16.0342C1.62891 14.8828 3.31055 13.4209 5.90625 12.3223C6.53613 12.0498 7.22754 11.8096 7.93945 11.5811C8.3584 13.0195 8.90918 14.5166 9.5918 16.0488C8.91797 17.5752 8.37305 19.0635 7.96289 20.4961C7.23633 20.2676 6.54492 20.0186 5.90625 19.7461ZM9.85547 30.2314C8.85645 29.6602 8.42578 27.4805 8.7627 24.6768C8.84473 23.9883 8.97656 23.2617 9.1377 22.5205C10.5762 22.8721 12.1465 23.1445 13.7959 23.3203C14.7861 24.6768 15.8145 25.9102 16.8486 26.9883C14.4551 29.2119 12.2109 30.4307 10.6846 30.4307C10.3535 30.4219 10.0752 30.3574 9.85547 30.2314ZM27.2607 24.6416C27.6064 27.4453 27.1787 29.625 26.1885 30.2051C25.9688 30.3369 25.6816 30.3955 25.3447 30.3955C23.8271 30.3955 21.5742 29.1855 19.1807 26.9766C20.209 25.8984 21.2344 24.6738 22.21 23.3145C23.8682 23.1387 25.4385 22.8662 26.877 22.5059C27.0469 23.2471 27.1787 23.959 27.2607 24.6416ZM30.085 19.7461C29.4551 20.0186 28.7637 20.2588 28.0518 20.4873C27.6328 19.0488 27.082 17.5518 26.3994 16.0195C27.0732 14.4932 27.6182 13.0049 28.0283 11.5723C28.7549 11.8008 29.4434 12.0498 30.0908 12.3193C32.6895 13.4268 34.3682 14.8799 34.3682 16.0312C34.3623 17.1855 32.6836 18.6445 30.085 19.7461Z" fill="#00D8FF"/>
</svg>
