<svg width="36" height="22" viewBox="0 0 36 22" fill="none" xmlns="http://www.w3.org/2000/svg">
<path fill-rule="evenodd" clip-rule="evenodd" d="M18 0C13.2012 0 10.2012 2.38574 9 7.15723C10.8008 4.77246 12.9004 3.87793 15.2988 4.47363C16.6699 4.81348 17.6426 5.80078 18.7324 6.89355C20.4902 8.6748 22.541 10.7344 27 10.7344C31.7988 10.7344 34.7988 8.34863 36 3.57715C34.2012 5.96387 32.1016 6.8584 29.7012 6.26074C28.3301 5.9209 27.3574 4.93359 26.2676 3.84082C24.5039 2.05078 22.4619 0 18 0ZM9 10.7344C4.20117 10.7344 1.20117 13.1201 0 17.8916C1.80273 15.5068 3.90234 14.6123 6.29883 15.208C7.66992 15.5479 8.64258 16.5352 9.73242 17.6309C11.4902 19.4092 13.541 21.4717 18 21.4717C22.7988 21.4717 25.7988 19.0859 27 14.3145C25.2012 16.6992 23.1016 17.5918 20.7012 16.9922C19.3301 16.6523 18.3574 15.665 17.2676 14.5723C15.5098 12.791 13.459 10.7285 9 10.7285V10.7344Z" fill="#06B6D4"/>
</svg>
