<svg width="36" height="36" viewBox="0 0 36 36" fill="none" xmlns="http://www.w3.org/2000/svg">
<mask id="mask0" mask-type="alpha" maskUnits="userSpaceOnUse" x="0" y="0" width="36" height="36">
<path fill-rule="evenodd" clip-rule="evenodd" d="M25.5277 35.7539C26.0944 35.9747 26.7412 35.9606 27.3136 35.685L34.7259 32.1187C35.505 31.7447 36 30.9558 36 30.0909V5.90906C36 5.04422 35.505 4.25672 34.7259 3.88125L27.3136 0.314998C26.5627 -0.0464085 25.6837 0.0421852 25.0242 0.521716C24.93 0.590623 24.84 0.66656 24.7556 0.750935L10.568 13.6955L4.3875 9.00281C3.81234 8.56547 3.00797 8.60203 2.47359 9.08859L0.490781 10.8914C-0.163125 11.4862 -0.163125 12.5142 0.489375 13.1091L5.84859 18L0.489375 22.8895C-0.163125 23.4858 -0.163125 24.5137 0.490781 25.1086L2.47359 26.9114C3.00797 27.398 3.81234 27.4331 4.3875 26.9972L10.568 22.3059L24.757 35.2505C24.982 35.4741 25.245 35.6442 25.5277 35.7539ZM27.0056 9.82828L16.2394 18L27.0056 26.1731V9.82828Z" fill="white"/>
</mask>
<g mask="url(#mask0)">
<path d="M34.7259 3.88688L27.308 0.315004C26.4502 -0.0984337 25.4236 0.0759413 24.75 0.749535L0.466876 22.8895C-0.185624 23.4858 -0.185624 24.5138 0.468282 25.1086L2.45109 26.9114C2.98547 27.398 3.79125 27.4331 4.36641 26.9972L33.6094 4.8136C34.5909 4.06969 36 4.7686 36 6.00047V5.91469C36 5.04985 35.505 4.26094 34.7259 3.88688Z" fill="#0065A9"/>
<path d="M34.7259 32.1131L27.308 35.685C26.4502 36.0984 25.4236 35.9241 24.75 35.2505L0.466876 13.1105C-0.185624 12.5156 -0.185624 11.4862 0.468282 10.8928L2.45109 9.08999C2.98547 8.60343 3.79125 8.56827 4.36641 9.00421L33.6094 31.1864C34.5909 31.9303 36 31.2314 36 29.9995V30.0853C36 30.9501 35.505 31.7391 34.7259 32.1131Z" fill="#007ACC"/>
<path d="M27.3094 35.685C26.4502 36.0984 25.425 35.9241 24.75 35.2491C25.5797 36.0788 27 35.4909 27 34.3167V1.68188C27 0.50766 25.5797 -0.0801522 24.75 0.749535C25.4236 0.0759416 26.4502 -0.0984334 27.3094 0.313598L34.7259 3.87985C35.505 4.25532 36.0014 5.04282 36.0014 5.90766V30.0909C36.0014 30.9558 35.5064 31.7433 34.7259 32.1188L27.3094 35.685Z" fill="#1F9CF0"/>
<g opacity="0.25">
<path opacity="0.25" fill-rule="evenodd" clip-rule="evenodd" d="M25.5066 35.7539C26.0733 35.9747 26.7202 35.9607 27.2925 35.685L34.7048 32.1188C35.4839 31.7447 35.9789 30.9558 35.9789 30.091V5.90909C35.9789 5.04425 35.4839 4.25675 34.7048 3.88128L27.2925 0.315028C26.5416 -0.046378 25.6627 0.0422157 25.0031 0.521747C24.9089 0.590653 24.8189 0.666591 24.7345 0.750966L10.5455 13.6955L4.365 9.00284C3.78984 8.5655 2.98547 8.60206 2.45109 9.08862L0.468282 10.8914C-0.185624 11.4863 -0.185624 12.5142 0.466876 13.1105L5.8275 18L0.466876 22.8896C-0.185624 23.4858 -0.185624 24.5138 0.468282 25.1086L2.45109 26.9114C2.98547 27.398 3.78984 27.4332 4.365 26.9972L10.5455 22.306L24.7345 35.2505C24.9595 35.4741 25.2225 35.6442 25.5066 35.7539ZM26.9831 9.82831L16.2169 18L26.9831 26.1732V9.82831Z" fill="url(#paint0_linear)"/>
</g>
</g>
<defs>
<linearGradient id="paint0_linear" x1="17.978" y1="0.0928407" x2="17.978" y2="35.9072" gradientUnits="userSpaceOnUse">
<stop stop-color="white"/>
<stop offset="1" stop-color="white" stop-opacity="0"/>
</linearGradient>
</defs>
</svg>
